<svg width="319" height="91" viewBox="0 0 319 91" fill="none" xmlns="http://www.w3.org/2000/svg">
<g clip-path="url(#clip0_568_13132)">
<path d="M39.4035 49.3708L39.3392 21.284L25.238 44.5297H21.6662L7.57211 21.6439V49.3708H0V6.99353H6.55774L23.595 35.0874L40.325 6.99353H46.8828L46.9399 49.3708H39.4035Z" fill="white" fill-opacity="0.9"/>
<path d="M78.5646 34.417V49.3708H70.5996V34.5511L53.748 7.02881H62.2702L74.8285 27.6776L87.5154 7.02881H95.3732L78.5646 34.417Z" fill="white" fill-opacity="0.9"/>
<path d="M228.292 49.6107L219.541 37.1974C218.991 37.2501 218.437 37.2713 217.884 37.2609H208.197V49.6107H200.254V7.26868H217.905C229.178 7.26868 236.164 12.9566 236.164 22.3424C236.164 28.7572 232.857 33.4784 227.035 35.7507L236.9 49.6742L228.292 49.6107ZM217.505 13.8952H208.219V30.7826H217.505C224.492 30.7826 228.114 27.6352 228.114 22.3142C228.114 16.9932 224.492 13.8952 217.505 13.8952Z" fill="white" fill-opacity="0.9"/>
<path d="M254.65 13.8952H240.428V7.2334H276.86V13.8952H262.615V49.6107H254.65V13.8952Z" fill="white" fill-opacity="0.9"/>
<path d="M317.179 25.1299C316.165 24.2747 314.88 23.7966 313.547 23.7786C312.214 23.7606 310.916 24.2036 309.878 25.0312C288.897 41.2457 265.698 54.4461 240.972 64.2398C218.42 73.1317 195.704 78.6432 175.288 80.1745C155.907 81.5859 138.999 79.3489 127.662 73.7809C118.911 69.4761 113.882 64.0916 111.846 56.8441L111.353 55.094L113.139 54.6564C124.798 51.8336 136.32 45.0166 145.585 35.5461C150.514 30.4933 153.993 25.4616 155.915 20.5852C157.286 17.0567 158.965 10.4373 154.757 5.22216C151.836 1.60192 146.9 -0.289354 141.185 0.0564391C140.849 0.0564391 140.506 0.0987776 140.178 0.14112C139.421 0.218055 138.67 0.338221 137.927 0.501023C132.255 1.736 126.419 4.73522 120.576 9.47752C108.325 19.3573 100.574 33.2878 99.8596 46.675L99.781 48.1852L98.2523 48.3334C94.3447 48.7025 90.4161 48.8062 86.4941 48.6439C85.2522 48.5701 84.0308 48.9828 83.0948 49.7926C82.1588 50.6023 81.5835 51.7439 81.4937 52.9698C81.4706 53.5459 81.5635 54.1207 81.7671 54.661C81.9706 55.2013 82.2808 55.6963 82.6795 56.1172C83.1196 56.585 83.6493 56.9618 84.2379 57.2259C84.8265 57.49 85.4622 57.6361 86.1084 57.6557C90.4835 57.8377 94.8662 57.715 99.2239 57.2887L100.731 57.1405L101.131 58.5519C103.989 68.8975 111.618 77.5634 122.562 82.955C133.405 88.283 147.221 90.9859 163.63 90.9859C167.637 90.9859 171.866 90.8235 176.195 90.4989C222.442 87.0339 275.054 65.5524 316.922 33.0267C317.602 32.5253 318.148 31.867 318.512 31.1093C318.875 30.3515 319.046 29.5174 319.008 28.6796C318.962 27.9965 318.776 27.3297 318.462 26.7196C318.148 26.1094 317.711 25.5686 317.179 25.1299ZM111.889 41.2834C114.111 32.6457 120.211 23.4645 127.812 17.2896C132.813 13.2742 137.592 11.1783 140.435 10.5643C141.242 10.3879 141.863 10.275 142.428 10.2115L143.028 10.1691C143.578 10.0929 144.138 10.1671 144.648 10.3836C145.158 10.6001 145.598 10.9506 145.921 11.397L146.042 11.5452L146.135 11.7217C146.45 12.3356 146.778 13.8388 145.549 16.9509C144.206 20.3594 141.178 24.7136 137.449 28.4891C133.163 32.8102 128.263 36.4925 122.905 39.4204L121.862 39.999C119.407 41.3057 116.857 42.4286 114.232 43.3582L111.068 44.4802L111.889 41.2834Z" fill="#B2794C"/>
<path d="M160.151 40.9588L160.651 39.8014L167.187 24.763L171.373 15.102L175.417 24.3678L186.389 49.6107H194.718L175.359 7.2334H167.516L148.207 49.6107H156.422L160.151 40.9588Z" fill="white" fill-opacity="0.9"/>
<path d="M291.133 10.3668C290.873 9.76035 290.5 9.20744 290.033 8.73663C289.562 8.26925 289.004 7.89552 288.39 7.63573C287.742 7.36845 287.046 7.23083 286.344 7.23083C285.641 7.23083 284.946 7.36845 284.297 7.63573C283.68 7.90295 283.118 8.28102 282.64 8.75073C282.169 9.22196 281.793 9.77764 281.533 10.388C281 11.66 281 13.089 281.533 14.3611C282.045 15.594 283.032 16.576 284.276 17.0921C284.92 17.3688 285.616 17.5083 286.319 17.5014C287.023 17.5034 287.721 17.3641 288.369 17.0921C288.986 16.8249 289.548 16.4468 290.026 15.9771C290.495 15.5041 290.87 14.9488 291.133 14.3399C291.667 13.0655 291.667 11.6341 291.133 10.3597V10.3668ZM290.533 12.3569C290.535 12.9135 290.426 13.4651 290.212 13.98C290.004 14.4771 289.701 14.93 289.319 15.3137C288.94 15.6961 288.489 16.0007 287.99 16.21C287.463 16.4266 286.897 16.5381 286.326 16.5381C285.755 16.5381 285.189 16.4266 284.661 16.21C284.162 16.0059 283.708 15.7061 283.326 15.3279C282.951 14.9463 282.653 14.4986 282.447 14.0082C282.237 13.4899 282.13 12.9364 282.133 12.378C282.128 11.8188 282.237 11.2645 282.454 10.7479C282.662 10.2544 282.962 9.8042 283.34 9.42116C283.731 9.02627 284.2 8.71338 284.716 8.50119C285.233 8.28901 285.788 8.18188 286.347 8.18618C286.916 8.18335 287.48 8.29375 288.005 8.5108C288.5 8.71849 288.949 9.02064 289.326 9.39998C289.703 9.78092 290.003 10.2286 290.212 10.7196C290.426 11.2396 290.535 11.7957 290.533 12.3569Z" fill="#2E2D2C"/>
<path d="M288.397 12.3851C288.624 12.0816 288.737 11.7102 288.719 11.3336C288.73 11.0932 288.685 10.8534 288.587 10.633C288.489 10.4127 288.341 10.2177 288.154 10.0633C287.717 9.73978 287.179 9.57752 286.633 9.6046H284.275V14.8409H285.447V13.1543H286.376L287.504 14.8409H288.869L287.569 12.9637C287.894 12.8502 288.18 12.6499 288.397 12.3851ZM287.297 11.9546C287.198 12.035 287.084 12.0951 286.961 12.1314C286.839 12.1678 286.71 12.1796 286.583 12.1663H285.411V10.6067H286.561C286.815 10.5856 287.067 10.6531 287.276 10.7972C287.353 10.8709 287.414 10.9592 287.456 11.0568C287.498 11.1544 287.519 11.2593 287.519 11.3653C287.519 11.4713 287.498 11.5762 287.456 11.6738C287.414 11.7714 287.353 11.8597 287.276 11.9334L287.297 11.9546Z" fill="white" fill-opacity="0.9"/>
</g>
<defs>
<clipPath id="clip0_568_13132">
<rect width="319" height="91" fill="white"/>
</clipPath>
</defs>
</svg>
